<svg width="1200" height="630" viewBox="0 0 1200 630" xmlns="http://www.w3.org/2000/svg"><rect x="0" y="0" width="1200" height="630" fill="#fefbfb"/><defs><clipPath id="satori_bc-id-0"><path x="105" y="39" width="1056" height="504" d="M109,39 h1048 a4,4 0 0 1 4,4 v496 a4,4 0 0 1 -4,4 h-1048 a4,4 0 0 1 -4,-4 v-496 a4,4 0 0 1 4,-4"/></clipPath></defs><g opacity="0.9"><path x="105" y="39" width="1056" height="504" fill="#ecebeb" d="M109,39 h1048 a4,4 0 0 1 4,4 v496 a4,4 0 0 1 -4,4 h-1048 a4,4 0 0 1 -4,-4 v-496 a4,4 0 0 1 4,-4"/><path width="1056" height="504" clip-path="url(#satori_bc-id-0)" fill="none" stroke="#000" stroke-width="8" d="M106.172,40.172 A4,4 0 0 1 109,39 h1048 a4,4 0 0 1 4,4 v496 a4,4 0 0 1 -4,4 h-1048 a4,4 0 0 1 -4,-4 v-496 A4,4 0 0 1 106.172,40.172"/></g><defs><clipPath id="satori_bc-id-1"><path x="72" y="63" width="1056" height="504" d="M76,63 h1048 a4,4 0 0 1 4,4 v496 a4,4 0 0 1 -4,4 h-1048 a4,4 0 0 1 -4,-4 v-496 a4,4 0 0 1 4,-4"/></clipPath></defs><path x="72" y="63" width="1056" height="504" fill="#fefbfb" d="M76,63 h1048 a4,4 0 0 1 4,4 v496 a4,4 0 0 1 -4,4 h-1048 a4,4 0 0 1 -4,-4 v-496 a4,4 0 0 1 4,-4"/><path width="1056" height="504" clip-path="url(#satori_bc-id-1)" fill="none" stroke="#000" stroke-width="8" d="M73.172,64.172 A4,4 0 0 1 76,63 h1048 a4,4 0 0 1 4,4 v496 a4,4 0 0 1 -4,4 h-1048 a4,4 0 0 1 -4,-4 v-496 A4,4 0 0 1 73.172,64.172"/><clipPath id="satori_cp-id-1-0-0"><rect x="128" y="103" width="944" height="281"/></clipPath><mask id="satori_om-id-1-0-0"><rect x="128" y="103" width="944" height="281" fill="#fff"/></mask><path fill="black" d="M159.0 183.0L159.0 160.6L159.6 146.5L159.0 146.5L149.6 172.4L140.2 146.5L139.6 146.5L140.2 160.6L140.2 183.0L130.8 183.0L130.8 132.7L143.6 132.7L149.7 149.6L150.3 149.6L156.5 132.7L168.4 132.7L168.4 183.0L159.0 183.0ZM196.6 161.4L202.2 145.8L213.0 145.8L195.5 188.9Q193.9 193.0 191.1 195.2Q188.4 197.4 183.7 197.4L183.7 197.4L176.3 197.4L176.3 189.1L185.2 189.1L187.5 182.7L172.6 145.8L184.0 145.8L189.4 161.4L192.8 172.2L193.4 172.2L196.6 161.4Z M278.4 183.8L278.4 183.8Q272.1 183.8 267.4 181.7Q262.7 179.6 259.8 176.0L259.8 176.0L266.1 169.1Q268.8 172.2 272.1 173.6Q275.4 175.0 278.8 175.0L278.8 175.0Q282.7 175.0 284.7 173.3Q286.7 171.6 286.7 168.3L286.7 168.3Q286.7 165.7 285.1 164.3Q283.6 162.9 279.9 162.4L279.9 162.4L274.7 161.5Q267.9 160.3 264.9 156.5Q261.8 152.6 261.8 147.1L261.8 147.1Q261.8 139.8 266.6 135.8Q271.4 131.8 279.9 131.8L279.9 131.8Q285.8 131.8 290.1 133.6Q294.4 135.4 297.1 138.5L297.1 138.5L290.9 145.4Q288.9 143.1 286.2 141.9Q283.4 140.6 280.0 140.6L280.0 140.6Q272.7 140.6 272.7 146.6L272.7 146.6Q272.7 149.2 274.3 150.5Q276.0 151.8 279.6 152.4L279.6 152.4L284.9 153.4Q291.0 154.4 294.3 158.0Q297.6 161.5 297.6 167.5L297.6 167.5Q297.6 171.0 296.4 174.0Q295.2 177.0 292.7 179.2Q290.3 181.4 286.7 182.6Q283.2 183.8 278.4 183.8ZM323.4 183.8L323.4 183.8Q314.0 183.8 309.2 178.6Q304.4 173.4 304.4 164.5L304.4 164.5Q304.4 160.0 305.7 156.3Q306.9 152.7 309.3 150.2Q311.6 147.6 314.9 146.3Q318.3 144.9 322.5 144.9L322.5 144.9Q326.6 144.9 330.0 146.3Q333.3 147.6 335.6 150.0Q337.9 152.5 339.1 156.0Q340.4 159.5 340.4 163.8L340.4 163.8L340.4 167.0L315.0 167.0L315.0 167.6Q315.0 171.2 317.2 173.4Q319.4 175.6 323.8 175.6L323.8 175.6Q327.1 175.6 329.5 174.3Q331.8 173.1 333.6 171.0L333.6 171.0L339.3 177.3Q337.2 179.9 333.3 181.9Q329.4 183.8 323.4 183.8ZM322.5 152.6L322.5 152.6Q319.1 152.6 317.0 154.7Q315.0 156.8 315.0 160.4L315.0 160.4L315.0 161.0L330.0 161.0L330.0 160.4Q330.0 156.7 328.0 154.7Q326 152.6 322.5 152.6ZM382.2 183.0L368.5 183.0Q362.7 183.0 359.9 179.9Q357.1 176.9 357.1 172.2L357.1 172.2L357.1 154.1L347.0 154.1L347.0 145.8L353.6 145.8Q356.0 145.8 357.0 144.9Q358.0 143.9 358.0 141.4L358.0 141.4L358.0 132.7L367.8 132.7L367.8 145.8L382.2 145.8L382.2 154.1L367.8 154.1L367.8 174.7L382.2 174.7L382.2 183.0ZM415.1 183.0L415.1 176.2L414.6 176.2Q413.4 179.4 410.8 181.6Q408.2 183.8 403.7 183.8L403.7 183.8Q401.0 183.8 398.8 182.9Q396.6 182.0 395.0 180.2Q393.4 178.4 392.5 175.8Q391.6 173.2 391.6 169.8L391.6 169.8L391.6 145.8L402.2 145.8L402.2 168.4Q402.2 175.6 408.5 175.6L408.5 175.6Q409.7 175.6 410.9 175.3Q412.1 175.0 413.0 174.3Q413.9 173.6 414.5 172.6Q415.1 171.6 415.1 170.2L415.1 170.2L415.1 145.8L425.7 145.8L425.7 183.0L415.1 183.0ZM434.6 197.4L434.6 145.8L445.3 145.8L445.3 152.6L445.8 152.6Q447.2 149.3 449.8 147.1Q452.4 144.9 456.8 144.9L456.8 144.9Q459.9 144.9 462.5 146.1Q465.0 147.2 466.9 149.6Q468.7 152.0 469.7 155.7Q470.8 159.3 470.8 164.4L470.8 164.4Q470.8 169.4 469.7 173.1Q468.7 176.8 466.9 179.1Q465.0 181.5 462.5 182.7Q459.9 183.8 456.8 183.8L456.8 183.8Q452.4 183.8 449.8 181.7Q447.2 179.6 445.8 176.2L445.8 176.2L445.3 176.2L445.3 197.4L434.6 197.4ZM452.2 175.5L452.2 175.5Q455.8 175.5 457.8 173.3Q459.7 171.1 459.7 167.3L459.7 167.3L459.7 161.5Q459.7 157.6 457.8 155.4Q455.8 153.2 452.2 153.2L452.2 153.2Q449.4 153.2 447.4 154.6Q445.3 156.0 445.3 158.9L445.3 158.9L445.3 169.8Q445.3 172.8 447.4 174.2Q449.4 175.5 452.2 175.5Z M538.4 183.8L538.4 183.8Q534.1 183.8 530.6 182.5Q527.2 181.2 524.8 178.6Q522.3 176.1 521.0 172.5Q519.8 168.9 519.8 164.4L519.8 164.4Q519.8 159.8 521.0 156.2Q522.3 152.6 524.8 150.1Q527.2 147.6 530.6 146.3Q534.1 144.9 538.4 144.9L538.4 144.9Q542.7 144.9 546.2 146.3Q549.6 147.6 552.0 150.1Q554.5 152.6 555.8 156.2Q557.0 159.8 557.0 164.4L557.0 164.4Q557.0 168.9 555.8 172.5Q554.5 176.1 552.0 178.6Q549.6 181.2 546.2 182.5Q542.7 183.8 538.4 183.8ZM538.4 175.9L538.4 175.9Q542.0 175.9 544.0 173.7Q546.0 171.4 546.0 167.3L546.0 167.3L546.0 161.4Q546.0 157.3 544.0 155.1Q542.0 152.9 538.4 152.9L538.4 152.9Q534.8 152.9 532.8 155.1Q530.8 157.3 530.8 161.4L530.8 161.4L530.8 167.3Q530.8 171.4 532.8 173.7Q534.8 175.9 538.4 175.9ZM565.1 183.0L565.1 174.7L576.1 174.7L576.1 154.1L564.4 154.1L564.4 145.8L576.1 145.8L576.1 140.4Q576.1 135.6 578.8 132.7Q581.6 129.7 587.4 129.7L587.4 129.7L600.0 129.7L600.0 138.0L586.7 138.0L586.7 145.8L600.0 145.8L600.0 154.1L586.7 154.1L586.7 174.7L598.4 174.7L598.4 183.0L565.1 183.0Z M663.0 183.0L652.2 183.0L652.2 132.7L685.5 132.7L685.5 141.6L663.0 141.6L663.0 153.1L683.1 153.1L683.1 161.9L663.0 161.9L663.0 183.0ZM712.2 183.8L712.2 183.8Q702.8 183.8 698.0 178.6Q693.2 173.4 693.2 164.5L693.2 164.5Q693.2 160.0 694.5 156.3Q695.7 152.7 698.1 150.2Q700.4 147.6 703.7 146.3Q707.1 144.9 711.3 144.9L711.3 144.9Q715.4 144.9 718.8 146.3Q722.1 147.6 724.4 150.0Q726.7 152.5 727.9 156.0Q729.2 159.5 729.2 163.8L729.2 163.8L729.2 167.0L703.8 167.0L703.8 167.6Q703.8 171.2 706.0 173.4Q708.2 175.6 712.6 175.6L712.6 175.6Q715.9 175.6 718.3 174.3Q720.6 173.1 722.4 171.0L722.4 171.0L728.1 177.3Q726.0 179.9 722.1 181.9Q718.2 183.8 712.2 183.8ZM711.3 152.6L711.3 152.6Q707.9 152.6 705.8 154.7Q703.8 156.8 703.8 160.4L703.8 160.4L703.8 161.0L718.8 161.0L718.8 160.4Q718.8 156.7 716.8 154.7Q714.8 152.6 711.3 152.6ZM761.1 183.0L761.1 176.2L760.6 176.2Q759.2 179.6 756.6 181.7Q754.0 183.8 749.6 183.8L749.6 183.8Q746.5 183.8 743.9 182.7Q741.4 181.5 739.5 179.1Q737.7 176.8 736.7 173.1Q735.6 169.4 735.6 164.4L735.6 164.4Q735.6 159.3 736.7 155.7Q737.7 152.0 739.5 149.6Q741.4 147.2 743.9 146.1Q746.5 144.9 749.6 144.9L749.6 144.9Q751.8 144.9 753.5 145.5Q755.3 146.1 756.6 147.1Q757.9 148.1 758.9 149.5Q759.9 150.9 760.6 152.6L760.6 152.6L761.1 152.6L761.1 129.7L771.8 129.7L771.8 183.0L761.1 183.0ZM754.2 175.5L754.2 175.5Q757.0 175.5 759.0 174.2Q761.1 172.8 761.1 169.8L761.1 169.8L761.1 158.9Q761.1 156.0 759.0 154.6Q757.0 153.2 754.2 153.2L754.2 153.2Q750.6 153.2 748.6 155.4Q746.7 157.6 746.7 161.5L746.7 161.5L746.7 167.3Q746.7 171.1 748.6 173.3Q750.6 175.5 754.2 175.5ZM797.6 183.8L797.6 183.8Q793.3 183.8 789.8 182.5Q786.4 181.2 784.0 178.6Q781.5 176.1 780.2 172.5Q779.0 168.9 779.0 164.4L779.0 164.4Q779.0 159.8 780.2 156.2Q781.5 152.6 784.0 150.1Q786.4 147.6 789.8 146.3Q793.3 144.9 797.6 144.9L797.6 144.9Q801.9 144.9 805.4 146.3Q808.8 147.6 811.2 150.1Q813.7 152.6 815.0 156.2Q816.2 159.8 816.2 164.4L816.2 164.4Q816.2 168.9 815.0 172.5Q813.7 176.1 811.2 178.6Q808.8 181.2 805.4 182.5Q801.9 183.8 797.6 183.8ZM797.6 175.9L797.6 175.9Q801.2 175.9 803.2 173.7Q805.2 171.4 805.2 167.3L805.2 167.3L805.2 161.4Q805.2 157.3 803.2 155.1Q801.2 152.9 797.6 152.9L797.6 152.9Q794.0 152.9 792.0 155.1Q790.0 157.3 790.0 161.4L790.0 161.4L790.0 167.3Q790.0 171.4 792.0 173.7Q794.0 175.9 797.6 175.9ZM824.5 183.0L824.5 174.7L833.1 174.7L833.1 154.1L824.5 154.1L824.5 145.8L843.8 145.8L843.8 156.3L844.3 156.3Q844.8 154.3 845.7 152.4Q846.6 150.5 848.0 149.0Q849.4 147.5 851.4 146.7Q853.4 145.8 856.1 145.8L856.1 145.8L859.7 145.8L859.7 155.6L851.7 155.6Q847.8 155.6 845.8 157.9Q843.8 160.3 843.8 163.7L843.8 163.7L843.8 174.7L856.0 174.7L856.0 183.0L824.5 183.0ZM903.6 183.0L897.5 183.0Q894.2 183.0 892.1 181.3Q890.1 179.6 889.8 176.4L889.8 176.4L889.4 176.4Q888.4 180.1 885.4 181.9Q882.4 183.8 878.1 183.8L878.1 183.8Q872.7 183.8 869.4 180.9Q866.1 178.0 866.1 172.7L866.1 172.7Q866.1 166.9 870.4 164.1Q874.6 161.3 882.8 161.3L882.8 161.3L888.8 161.3L888.8 159.4Q888.8 156.1 887.3 154.4Q885.7 152.7 882.1 152.7L882.1 152.7Q878.7 152.7 876.6 154.0Q874.5 155.3 873.0 157.4L873.0 157.4L867.2 152.2Q869.0 149.0 873.0 147.0Q877.0 144.9 883.3 144.9L883.3 144.9Q890.9 144.9 895.2 148.4Q899.5 151.9 899.5 159.0L899.5 159.0L899.5 175.2L903.6 175.2L903.6 183.0ZM882.1 176.8L882.1 176.8Q884.9 176.8 886.9 175.5Q888.8 174.1 888.8 171.5L888.8 171.5L888.8 167.0L883.1 167.0Q876.6 167.0 876.6 171.4L876.6 171.4L876.6 172.9Q876.6 174.8 878.1 175.8Q879.6 176.8 882.1 176.8Z M148.8 277.4L148.8 277.4Q142.5 277.4 137.8 275.3Q133.1 273.2 130.2 269.6L130.2 269.6L136.5 262.7Q139.2 265.8 142.5 267.2Q145.8 268.6 149.2 268.6L149.2 268.6Q153.1 268.6 155.1 266.9Q157.1 265.2 157.1 261.9L157.1 261.9Q157.1 259.3 155.5 257.9Q154.0 256.5 150.3 256.0L150.3 256.0L145.1 255.1Q138.3 253.9 135.3 250.1Q132.2 246.2 132.2 240.7L132.2 240.7Q132.2 233.4 137 229.4Q141.8 225.4 150.3 225.4L150.3 225.4Q156.2 225.4 160.5 227.2Q164.8 229.0 167.5 232.1L167.5 232.1L161.3 239.0Q159.3 236.7 156.6 235.5Q153.8 234.2 150.4 234.2L150.4 234.2Q143.1 234.2 143.1 240.2L143.1 240.2Q143.1 242.8 144.7 244.1Q146.4 245.4 150.0 246.0L150.0 246.0L155.3 247.0Q161.4 248.0 164.7 251.6Q168.0 255.1 168.0 261.1L168.0 261.1Q168.0 264.6 166.8 267.6Q165.6 270.6 163.1 272.8Q160.7 275.0 157.1 276.2Q153.6 277.4 148.8 277.4ZM195.1 234.6L195.1 234.6Q191.5 234.6 190.1 233.2Q188.7 231.7 188.7 229.6L188.7 229.6L188.7 227.5Q188.7 225.4 190.1 223.9Q191.5 222.5 195.1 222.5L195.1 222.5Q198.7 222.5 200.1 223.9Q201.5 225.4 201.5 227.5L201.5 227.5L201.5 229.6Q201.5 231.7 200.1 233.2Q198.7 234.6 195.1 234.6ZM178.0 276.6L178.0 268.3L189.8 268.3L189.8 247.7L178.0 247.7L178.0 239.4L200.4 239.4L200.4 268.3L211.4 268.3L211.4 276.6L178.0 276.6ZM219.3 276.6L219.3 268.3L230.7 268.3L230.7 231.6L219.3 231.6L219.3 223.3L241.3 223.3L241.3 268.3L252.7 268.3L252.7 276.6L219.3 276.6ZM285.5 276.6L272.9 276.6L259.5 239.4L270.8 239.4L275.6 255.3L279.1 267.7L279.7 267.7L283.2 255.3L288.1 239.4L298.9 239.4L285.5 276.6ZM323.4 277.4L323.4 277.4Q314.0 277.4 309.2 272.2Q304.4 267.0 304.4 258.1L304.4 258.1Q304.4 253.6 305.7 249.9Q306.9 246.3 309.3 243.8Q311.6 241.2 314.9 239.9Q318.3 238.5 322.5 238.5L322.5 238.5Q326.6 238.5 330.0 239.9Q333.3 241.2 335.6 243.6Q337.9 246.1 339.1 249.6Q340.4 253.1 340.4 257.4L340.4 257.4L340.4 260.6L315.0 260.6L315.0 261.2Q315.0 264.8 317.2 267.0Q319.4 269.2 323.8 269.2L323.8 269.2Q327.1 269.2 329.5 267.9Q331.8 266.7 333.6 264.6L333.6 264.6L339.3 270.9Q337.2 273.5 333.3 275.5Q329.4 277.4 323.4 277.4ZM322.5 246.2L322.5 246.2Q319.1 246.2 317.0 248.3Q315.0 250.4 315.0 254.0L315.0 254.0L315.0 254.6L330.0 254.6L330.0 254.0Q330.0 250.3 328.0 248.3Q326.0 246.2 322.5 246.2ZM349.3 276.6L349.3 268.3L357.9 268.3L357.9 247.7L349.3 247.7L349.3 239.4L368.6 239.4L368.6 249.9L369.1 249.9Q369.6 247.9 370.5 246.0Q371.4 244.1 372.8 242.6Q374.2 241.1 376.2 240.3Q378.2 239.4 380.9 239.4L380.9 239.4L384.5 239.4L384.5 249.2L376.5 249.2Q372.6 249.2 370.6 251.5Q368.6 253.9 368.6 257.3L368.6 257.3L368.6 268.3L380.8 268.3L380.8 276.6L349.3 276.6ZM391.4 276.6L391.4 223.3L402.1 223.3L402.1 246.2L402.6 246.2Q404.0 242.9 406.6 240.7Q409.2 238.5 413.6 238.5L413.6 238.5Q416.7 238.5 419.3 239.7Q421.8 240.8 423.7 243.2Q425.5 245.6 426.5 249.3Q427.6 252.9 427.6 258.0L427.6 258.0Q427.6 263.0 426.5 266.7Q425.5 270.4 423.7 272.7Q421.8 275.1 419.3 276.3Q416.7 277.4 413.6 277.4L413.6 277.4Q409.2 277.4 406.6 275.3Q404.0 273.2 402.6 269.8L402.6 269.8L402.1 269.8L402.1 276.6L391.4 276.6ZM409.0 269.1L409.0 269.1Q412.6 269.1 414.6 266.9Q416.5 264.7 416.5 260.9L416.5 260.9L416.5 255.1Q416.5 251.2 414.6 249.0Q412.6 246.8 409.0 246.8L409.0 246.8Q406.2 246.8 404.2 248.2Q402.1 249.6 402.1 252.5L402.1 252.5L402.1 263.4Q402.1 266.4 404.2 267.8Q406.2 269.1 409.0 269.1ZM435.3 276.6L435.3 268.3L446.7 268.3L446.7 231.6L435.3 231.6L435.3 223.3L457.3 223.3L457.3 268.3L468.7 268.3L468.7 276.6L435.3 276.6ZM501.5 276.6L501.5 269.8L501.0 269.8Q499.8 273.0 497.2 275.2Q494.6 277.4 490.1 277.4L490.1 277.4Q487.4 277.4 485.2 276.5Q483.0 275.6 481.4 273.8Q479.8 272.0 478.9 269.4Q478.0 266.8 478.0 263.4L478.0 263.4L478.0 239.4L488.6 239.4L488.6 262.0Q488.6 269.2 494.9 269.2L494.9 269.2Q496.1 269.2 497.3 268.9Q498.5 268.6 499.4 267.9Q500.3 267.2 500.9 266.2Q501.5 265.2 501.5 263.8L501.5 263.8L501.5 239.4L512.1 239.4L512.1 276.6L501.5 276.6ZM539.4 277.4L539.4 277.4Q530.0 277.4 525.2 272.2Q520.4 267.0 520.4 258.1L520.4 258.1Q520.4 253.6 521.7 249.9Q522.9 246.3 525.3 243.8Q527.6 241.2 530.9 239.9Q534.3 238.5 538.5 238.5L538.5 238.5Q542.6 238.5 546.0 239.9Q549.3 241.2 551.6 243.6Q553.9 246.1 555.1 249.6Q556.4 253.1 556.4 257.4L556.4 257.4L556.4 260.6L531.0 260.6L531.0 261.2Q531.0 264.8 533.2 267.0Q535.4 269.2 539.8 269.2L539.8 269.2Q543.1 269.2 545.5 267.9Q547.8 266.7 549.6 264.6L549.6 264.6L555.3 270.9Q553.2 273.5 549.3 275.5Q545.4 277.4 539.4 277.4ZM538.5 246.2L538.5 246.2Q535.1 246.2 533.0 248.3Q531.0 250.4 531.0 254.0L531.0 254.0L531.0 254.6L546.0 254.6L546.0 254.0Q546.0 250.3 544.0 248.3Q542 246.2 538.5 246.2Z M608.3 276.6L608.3 268.3L619.3 268.3L619.3 247.7L607.6 247.7L607.6 239.4L619.3 239.4L619.3 234.0Q619.3 229.2 622.0 226.3Q624.8 223.3 630.6 223.3L630.6 223.3L643.2 223.3L643.2 231.6L629.9 231.6L629.9 239.4L643.2 239.4L643.2 247.7L629.9 247.7L629.9 268.3L641.6 268.3L641.6 276.6L608.3 276.6ZM668 277.4L668 277.4Q663.7 277.4 660.2 276.1Q656.8 274.8 654.4 272.2Q651.9 269.7 650.6 266.1Q649.4 262.5 649.4 258.0L649.4 258.0Q649.4 253.4 650.6 249.8Q651.9 246.2 654.4 243.7Q656.8 241.2 660.2 239.9Q663.7 238.5 668 238.5L668 238.5Q672.3 238.5 675.8 239.9Q679.2 241.2 681.6 243.7Q684.1 246.2 685.4 249.8Q686.6 253.4 686.6 258.0L686.6 258.0Q686.6 262.5 685.4 266.1Q684.1 269.7 681.6 272.2Q679.2 274.8 675.8 276.1Q672.3 277.4 668 277.4ZM668 269.5L668 269.5Q671.6 269.5 673.6 267.3Q675.6 265.0 675.6 260.9L675.6 260.9L675.6 255.0Q675.6 250.9 673.6 248.7Q671.6 246.5 668 246.5L668 246.5Q664.4 246.5 662.4 248.7Q660.4 250.9 660.4 255.0L660.4 255.0L660.4 260.9Q660.4 265.0 662.4 267.3Q664.4 269.5 668 269.5ZM694.9 276.6L694.9 268.3L703.5 268.3L703.5 247.7L694.9 247.7L694.9 239.4L714.2 239.4L714.2 249.9L714.7 249.9Q715.2 247.9 716.1 246.0Q717.0 244.1 718.4 242.6Q719.8 241.1 721.8 240.3Q723.8 239.4 726.5 239.4L726.5 239.4L730.1 239.4L730.1 249.2L722.1 249.2Q718.2 249.2 716.2 251.5Q714.2 253.9 714.2 257.3L714.2 257.3L714.2 268.3L726.4 268.3L726.4 276.6L694.9 276.6Z M804.3 276.6L804.3 269.8L803.8 269.8Q802.4 273.2 799.8 275.3Q797.2 277.4 792.8 277.4L792.8 277.4Q789.7 277.4 787.1 276.3Q784.6 275.1 782.7 272.7Q780.9 270.4 779.9 266.7Q778.8 263.0 778.8 258.0L778.8 258.0Q778.8 252.9 779.9 249.3Q780.9 245.6 782.7 243.2Q784.6 240.8 787.1 239.7Q789.7 238.5 792.8 238.5L792.8 238.5Q795.0 238.5 796.7 239.1Q798.5 239.7 799.8 240.7Q801.1 241.7 802.1 243.1Q803.1 244.5 803.8 246.2L803.8 246.2L804.3 246.2L804.3 223.3L815.0 223.3L815.0 276.6L804.3 276.6ZM797.4 269.1L797.4 269.1Q800.2 269.1 802.2 267.8Q804.3 266.4 804.3 263.4L804.3 263.4L804.3 252.5Q804.3 249.6 802.2 248.2Q800.2 246.8 797.4 246.8L797.4 246.8Q793.8 246.8 791.8 249.0Q789.9 251.2 789.9 255.1L789.9 255.1L789.9 260.9Q789.9 264.7 791.8 266.9Q793.8 269.1 797.4 269.1ZM860.4 276.6L854.3 276.6Q851.0 276.6 848.9 274.9Q846.9 273.2 846.6 270.0L846.6 270.0L846.2 270.0Q845.2 273.7 842.2 275.5Q839.2 277.4 834.9 277.4L834.9 277.4Q829.5 277.4 826.2 274.5Q822.9 271.6 822.9 266.3L822.9 266.3Q822.9 260.5 827.2 257.7Q831.4 254.9 839.6 254.9L839.6 254.9L845.6 254.9L845.6 253.0Q845.6 249.7 844.1 248.0Q842.5 246.3 838.9 246.3L838.9 246.3Q835.5 246.3 833.4 247.6Q831.3 248.9 829.8 251.0L829.8 251.0L824.0 245.8Q825.8 242.6 829.8 240.6Q833.8 238.5 840.1 238.5L840.1 238.5Q847.7 238.5 852.0 242.0Q856.3 245.5 856.3 252.6L856.3 252.6L856.3 268.8L860.4 268.8L860.4 276.6ZM838.9 270.4L838.9 270.4Q841.7 270.4 843.7 269.1Q845.6 267.7 845.6 265.1L845.6 265.1L845.6 260.6L839.9 260.6Q833.4 260.6 833.4 265.0L833.4 265.0L833.4 266.5Q833.4 268.4 834.9 269.4Q836.4 270.4 838.9 270.4ZM886.3 234.6L886.3 234.6Q882.7 234.6 881.3 233.2Q879.9 231.7 879.9 229.6L879.9 229.6L879.9 227.5Q879.9 225.4 881.3 223.9Q882.7 222.5 886.3 222.5L886.3 222.5Q889.9 222.5 891.3 223.9Q892.7 225.4 892.7 227.5L892.7 227.5L892.7 229.6Q892.7 231.7 891.3 233.2Q889.9 234.6 886.3 234.6ZM869.2 276.6L869.2 268.3L881.0 268.3L881.0 247.7L869.2 247.7L869.2 239.4L891.6 239.4L891.6 268.3L902.6 268.3L902.6 276.6L869.2 276.6ZM910.5 276.6L910.5 268.3L921.9 268.3L921.9 231.6L910.5 231.6L910.5 223.3L932.5 223.3L932.5 268.3L943.9 268.3L943.9 276.6L910.5 276.6ZM974.2 255.0L979.8 239.4L990.6 239.4L973.1 282.5Q971.5 286.6 968.7 288.8Q966.0 291.0 961.3 291.0L961.3 291.0L953.9 291.0L953.9 282.7L962.8 282.7L965.1 276.3L950.2 239.4L961.6 239.4L967.0 255.0L970.4 265.8L971.0 265.8L974.2 255.0Z M155.9 370.2L155.9 363.4L155.4 363.4Q154.2 366.6 151.6 368.8Q149.0 371.0 144.5 371.0L144.5 371.0Q141.8 371.0 139.6 370.1Q137.4 369.2 135.8 367.4Q134.2 365.6 133.3 363.0Q132.4 360.4 132.4 357.0L132.4 357.0L132.4 333.0L143.0 333.0L143.0 355.6Q143.0 362.8 149.3 362.8L149.3 362.8Q150.5 362.8 151.7 362.5Q152.9 362.2 153.8 361.5Q154.7 360.8 155.3 359.8Q155.9 358.8 155.9 357.4L155.9 357.4L155.9 333.0L166.5 333.0L166.5 370.2L155.9 370.2ZM192.4 371.0L192.4 371.0Q186.2 371.0 181.6 369.1Q177.0 367.3 174.7 364.0L174.7 364.0L180.7 358.5Q182.9 360.9 185.8 362.2Q188.7 363.5 192.4 363.5L192.4 363.5Q195.6 363.5 197.4 362.6Q199.2 361.6 199.2 359.6L199.2 359.6Q199.2 358.0 198.0 357.4Q196.8 356.8 194.6 356.4L194.6 356.4L188.6 355.5Q186.1 355.1 183.9 354.3Q181.8 353.6 180.2 352.3Q178.6 351.0 177.7 349.1Q176.7 347.3 176.7 344.6L176.7 344.6Q176.7 338.8 181.2 335.4Q185.7 332.1 193.7 332.1L193.7 332.1Q199.2 332.1 203.1 333.6Q206.9 335.1 209.2 337.8L209.2 337.8L203.9 343.9Q202.2 342.1 199.6 340.8Q197.0 339.6 193.4 339.6L193.4 339.6Q187.2 339.6 187.2 343.4L187.2 343.4Q187.2 345.0 188.4 345.6Q189.6 346.2 191.8 346.6L191.8 346.6L197.7 347.5Q200.2 347.9 202.4 348.7Q204.5 349.4 206.2 350.7Q207.8 352.0 208.7 353.9Q209.6 355.8 209.6 358.4L209.6 358.4Q209.6 364.2 205.1 367.6Q200.6 371.0 192.4 371.0ZM237.0 371.0L237.0 371.0Q227.6 371.0 222.8 365.8Q218.0 360.6 218.0 351.7L218.0 351.7Q218.0 347.2 219.3 343.5Q220.5 339.9 222.9 337.4Q225.2 334.8 228.5 333.5Q231.9 332.1 236.1 332.1L236.1 332.1Q240.2 332.1 243.6 333.5Q246.9 334.8 249.2 337.2Q251.5 339.7 252.7 343.2Q254.0 346.7 254.0 351.0L254.0 351.0L254.0 354.2L228.6 354.2L228.6 354.8Q228.6 358.4 230.8 360.6Q233.0 362.8 237.4 362.8L237.4 362.8Q240.7 362.8 243.1 361.5Q245.4 360.3 247.2 358.2L247.2 358.2L252.9 364.5Q250.8 367.1 246.9 369.1Q243.0 371.0 237.0 371.0ZM236.1 339.8L236.1 339.8Q232.7 339.8 230.6 341.9Q228.6 344.0 228.6 347.6L228.6 347.6L228.6 348.2L243.6 348.2L243.6 347.6Q243.6 343.9 241.6 341.9Q239.6 339.8 236.1 339.8Z M342.0 370.2L335.9 370.2Q332.6 370.2 330.5 368.5Q328.5 366.8 328.2 363.6L328.2 363.6L327.8 363.6Q326.8 367.3 323.8 369.1Q320.8 371.0 316.5 371.0L316.5 371.0Q311.1 371.0 307.8 368.1Q304.5 365.2 304.5 359.9L304.5 359.9Q304.5 354.1 308.8 351.3Q313.0 348.5 321.2 348.5L321.2 348.5L327.2 348.5L327.2 346.6Q327.2 343.3 325.7 341.6Q324.1 339.9 320.5 339.9L320.5 339.9Q317.1 339.9 315.0 341.2Q312.9 342.5 311.4 344.6L311.4 344.6L305.6 339.4Q307.4 336.2 311.4 334.2Q315.4 332.1 321.7 332.1L321.7 332.1Q329.3 332.1 333.6 335.6Q337.9 339.1 337.9 346.2L337.9 346.2L337.9 362.4L342.0 362.4L342.0 370.2ZM320.5 364.0L320.5 364.0Q323.3 364.0 325.3 362.7Q327.2 361.3 327.2 358.7L327.2 358.7L327.2 354.2L321.5 354.2Q315.0 354.2 315.0 358.6L315.0 358.6L315.0 360.1Q315.0 362.0 316.5 363.0Q318.0 364.0 320.5 364.0ZM359.3 370.2L348.7 370.2L348.7 333.0L359.3 333.0L359.3 339.8L359.8 339.8Q360.4 338.2 361.4 336.8Q362.3 335.4 363.6 334.4Q365.0 333.4 366.7 332.7Q368.5 332.1 370.7 332.1L370.7 332.1Q373.4 332.1 375.6 333.0Q377.8 333.9 379.4 335.7Q381.0 337.5 381.9 340.1Q382.8 342.7 382.8 346.1L382.8 346.1L382.8 370.2L372.2 370.2L372.2 347.5Q372.2 340.3 365.9 340.3L365.9 340.3Q364.7 340.3 363.5 340.7Q362.3 341.0 361.4 341.7Q360.4 342.4 359.9 343.4Q359.3 344.4 359.3 345.7L359.3 345.7L359.3 370.2ZM415.5 370.2L415.5 363.4L415.0 363.4Q413.6 366.8 411.0 368.9Q408.4 371.0 404.0 371.0L404.0 371.0Q400.9 371.0 398.3 369.9Q395.8 368.7 393.9 366.3Q392.1 364.0 391.1 360.3Q390.0 356.6 390.0 351.6L390.0 351.6Q390.0 346.5 391.1 342.9Q392.1 339.2 393.9 336.8Q395.8 334.4 398.3 333.3Q400.9 332.1 404.0 332.1L404.0 332.1Q406.2 332.1 407.9 332.7Q409.7 333.3 411.0 334.3Q412.3 335.3 413.3 336.7Q414.3 338.1 415.0 339.8L415.0 339.8L415.5 339.8L415.5 316.9L426.2 316.9L426.2 370.2L415.5 370.2ZM408.6 362.7L408.6 362.7Q411.4 362.7 413.4 361.4Q415.5 360.0 415.5 357.0L415.5 357.0L415.5 346.1Q415.5 343.2 413.4 341.8Q411.4 340.4 408.6 340.4L408.6 340.4Q405.0 340.4 403.0 342.6Q401.1 344.8 401.1 348.7L401.1 348.7L401.1 354.5Q401.1 358.3 403.0 360.5Q405.0 362.7 408.6 362.7Z M501.9 370.2L501.9 363.4L501.4 363.4Q500.0 366.8 497.4 368.9Q494.8 371.0 490.4 371.0L490.4 371.0Q487.3 371.0 484.7 369.9Q482.2 368.7 480.3 366.3Q478.5 364.0 477.5 360.3Q476.4 356.6 476.4 351.6L476.4 351.6Q476.4 346.5 477.5 342.9Q478.5 339.2 480.3 336.8Q482.2 334.4 484.7 333.3Q487.3 332.1 490.4 332.1L490.4 332.1Q492.6 332.1 494.3 332.7Q496.1 333.3 497.4 334.3Q498.7 335.3 499.7 336.7Q500.7 338.1 501.4 339.8L501.4 339.8L501.9 339.8L501.9 316.9L512.6 316.9L512.6 370.2L501.9 370.2ZM495.0 362.7L495.0 362.7Q497.8 362.7 499.8 361.4Q501.9 360.0 501.9 357.0L501.9 357.0L501.9 346.1Q501.9 343.2 499.8 341.8Q497.8 340.4 495.0 340.4L495.0 340.4Q491.4 340.4 489.4 342.6Q487.5 344.8 487.5 348.7L487.5 348.7L487.5 354.5Q487.5 358.3 489.4 360.5Q491.4 362.7 495.0 362.7ZM539.4 371.0L539.4 371.0Q530.0 371.0 525.2 365.8Q520.4 360.6 520.4 351.7L520.4 351.7Q520.4 347.2 521.7 343.5Q522.9 339.9 525.3 337.4Q527.6 334.8 530.9 333.5Q534.3 332.1 538.5 332.1L538.5 332.1Q542.6 332.1 546.0 333.5Q549.3 334.8 551.6 337.2Q553.9 339.7 555.1 343.2Q556.4 346.7 556.4 351.0L556.4 351.0L556.4 354.2L531.0 354.2L531.0 354.8Q531.0 358.4 533.2 360.6Q535.4 362.8 539.8 362.8L539.8 362.8Q543.1 362.8 545.5 361.5Q547.8 360.3 549.6 358.2L549.6 358.2L555.3 364.5Q553.2 367.1 549.3 369.1Q545.4 371.0 539.4 371.0ZM538.5 339.8L538.5 339.8Q535.1 339.8 533.0 341.9Q531.0 344.0 531.0 347.6L531.0 347.6L531.0 348.2L546.0 348.2L546.0 347.6Q546.0 343.9 544.0 341.9Q542.0 339.8 538.5 339.8ZM587.9 370.2L575.3 370.2L561.9 333.0L573.2 333.0L578.0 348.9L581.5 361.3L582.1 361.3L585.6 348.9L590.5 333.0L601.3 333.0L587.9 370.2ZM625.8 371.0L625.8 371.0Q616.4 371.0 611.6 365.8Q606.8 360.6 606.8 351.7L606.8 351.7Q606.8 347.2 608.1 343.5Q609.3 339.9 611.7 337.4Q614.0 334.8 617.3 333.5Q620.7 332.1 624.9 332.1L624.9 332.1Q629.0 332.1 632.4 333.5Q635.7 334.8 638.0 337.2Q640.3 339.7 641.5 343.2Q642.8 346.7 642.8 351.0L642.8 351.0L642.8 354.2L617.4 354.2L617.4 354.8Q617.4 358.4 619.6 360.6Q621.8 362.8 626.2 362.8L626.2 362.8Q629.5 362.8 631.9 361.5Q634.2 360.3 636.0 358.2L636.0 358.2L641.7 364.5Q639.6 367.1 635.7 369.1Q631.8 371.0 625.8 371.0ZM624.9 339.8L624.9 339.8Q621.5 339.8 619.4 341.9Q617.4 344.0 617.4 347.6L617.4 347.6L617.4 348.2L632.4 348.2L632.4 347.6Q632.4 343.9 630.4 341.9Q628.4 339.8 624.9 339.8ZM651.3 370.2L651.3 361.9L662.7 361.9L662.7 325.2L651.3 325.2L651.3 316.9L673.3 316.9L673.3 361.9L684.7 361.9L684.7 370.2L651.3 370.2ZM711.2 371.0L711.2 371.0Q706.9 371.0 703.4 369.7Q700.0 368.4 697.6 365.8Q695.1 363.3 693.8 359.7Q692.6 356.1 692.6 351.6L692.6 351.6Q692.6 347.0 693.8 343.4Q695.1 339.8 697.6 337.3Q700.0 334.8 703.4 333.5Q706.9 332.1 711.2 332.1L711.2 332.1Q715.5 332.1 719.0 333.5Q722.4 334.8 724.8 337.3Q727.3 339.8 728.6 343.4Q729.8 347.0 729.8 351.6L729.8 351.6Q729.8 356.1 728.6 359.7Q727.3 363.3 724.8 365.8Q722.4 368.4 719.0 369.7Q715.5 371.0 711.2 371.0ZM711.2 363.1L711.2 363.1Q714.8 363.1 716.8 360.9Q718.8 358.6 718.8 354.5L718.8 354.5L718.8 348.6Q718.8 344.5 716.8 342.3Q714.8 340.1 711.2 340.1L711.2 340.1Q707.6 340.1 705.6 342.3Q703.6 344.5 703.6 348.6L703.6 348.6L703.6 354.5Q703.6 358.6 705.6 360.9Q707.6 363.1 711.2 363.1ZM737.0 384.6L737.0 333.0L747.7 333.0L747.7 339.8L748.2 339.8Q749.6 336.5 752.2 334.3Q754.8 332.1 759.2 332.1L759.2 332.1Q762.3 332.1 764.9 333.3Q767.4 334.4 769.3 336.8Q771.1 339.2 772.1 342.9Q773.2 346.5 773.2 351.6L773.2 351.6Q773.2 356.6 772.1 360.3Q771.1 364.0 769.3 366.3Q767.4 368.7 764.9 369.9Q762.3 371.0 759.2 371.0L759.2 371.0Q754.8 371.0 752.2 368.9Q749.6 366.8 748.2 363.4L748.2 363.4L747.7 363.4L747.7 384.6L737.0 384.6ZM754.6 362.7L754.6 362.7Q758.2 362.7 760.2 360.5Q762.1 358.3 762.1 354.5L762.1 354.5L762.1 348.7Q762.1 344.8 760.2 342.6Q758.2 340.4 754.6 340.4L754.6 340.4Q751.8 340.4 749.8 341.8Q747.7 343.2 747.7 346.1L747.7 346.1L747.7 357.0Q747.7 360.0 749.8 361.4Q751.8 362.7 754.6 362.7ZM786.7 370.2L778.2 370.2L778.2 333.0L786.7 333.0L786.7 338.5L787.2 338.5Q788.1 335.9 789.7 334.0Q791.3 332.1 794.3 332.1L794.3 332.1Q799.7 332.1 800.9 338.5L800.9 338.5L801.3 338.5Q801.8 337.2 802.4 336.0Q803.1 334.9 804.0 334.0Q804.9 333.1 806.2 332.6Q807.5 332.1 809.3 332.1L809.3 332.1Q817.0 332.1 817.0 343.6L817.0 343.6L817.0 370.2L808.5 370.2L808.5 344.7Q808.5 342.1 807.6 341.0Q806.7 340.0 805.2 340.0L805.2 340.0Q803.9 340.0 802.9 340.9Q801.9 341.8 801.9 343.7L801.9 343.7L801.9 370.2L793.3 370.2L793.3 344.7Q793.3 342.1 792.5 341.0Q791.6 340.0 790.2 340.0L790.2 340.0Q788.7 340.0 787.7 340.9Q786.7 341.8 786.7 343.7L786.7 343.7L786.7 370.2ZM841.8 371.0L841.8 371.0Q832.4 371.0 827.6 365.8Q822.8 360.6 822.8 351.7L822.8 351.7Q822.8 347.2 824.1 343.5Q825.3 339.9 827.7 337.4Q830.0 334.8 833.3 333.5Q836.7 332.1 840.9 332.1L840.9 332.1Q845.0 332.1 848.4 333.5Q851.7 334.8 854.0 337.2Q856.3 339.7 857.5 343.2Q858.8 346.7 858.8 351.0L858.8 351.0L858.8 354.2L833.4 354.2L833.4 354.8Q833.4 358.4 835.6 360.6Q837.8 362.8 842.2 362.8L842.2 362.8Q845.5 362.8 847.9 361.5Q850.2 360.3 852.0 358.2L852.0 358.2L857.7 364.5Q855.6 367.1 851.7 369.1Q847.8 371.0 841.8 371.0ZM840.9 339.8L840.9 339.8Q837.5 339.8 835.4 341.9Q833.4 344.0 833.4 347.6L833.4 347.6L833.4 348.2L848.4 348.2L848.4 347.6Q848.4 343.9 846.4 341.9Q844.4 339.8 840.9 339.8ZM877.7 370.2L867.1 370.2L867.1 333.0L877.7 333.0L877.7 339.8L878.2 339.8Q878.8 338.2 879.8 336.8Q880.7 335.4 882.0 334.4Q883.4 333.4 885.1 332.7Q886.9 332.1 889.1 332.1L889.1 332.1Q891.8 332.1 894.0 333.0Q896.2 333.9 897.8 335.7Q899.4 337.5 900.3 340.1Q901.2 342.7 901.2 346.1L901.2 346.1L901.2 370.2L890.6 370.2L890.6 347.5Q890.6 340.3 884.3 340.3L884.3 340.3Q883.1 340.3 881.9 340.7Q880.7 341.0 879.8 341.7Q878.8 342.4 878.3 343.4Q877.7 344.4 877.7 345.7L877.7 345.7L877.7 370.2ZM943.8 370.2L930.1 370.2Q924.3 370.2 921.5 367.1Q918.7 364.1 918.7 359.4L918.7 359.4L918.7 341.3L908.6 341.3L908.6 333.0L915.2 333.0Q917.6 333.0 918.6 332.1Q919.6 331.1 919.6 328.6L919.6 328.6L919.6 319.9L929.4 319.9L929.4 333.0L943.8 333.0L943.8 341.3L929.4 341.3L929.4 361.9L943.8 361.9L943.8 370.2Z " clip-path="url(#satori_cp-id-1-0-0)" mask="url(#satori_om-id-1-0-0)"/><path fill="black" d="M130.7 520.3L130.7 499.6L132.9 499.6L132.9 508.2L133.0 508.2Q134.4 505.5 137.5 505.5L137.5 505.5Q140.1 505.5 141.6 507.5Q143.1 509.5 143.1 513.0L143.1 513.0Q143.1 516.6 141.6 518.6Q140.1 520.6 137.5 520.6L137.5 520.6Q134.4 520.6 133.0 517.9L133.0 517.9L132.9 517.9L132.9 520.3L130.7 520.3ZM136.6 518.6L136.6 518.6Q138.6 518.6 139.6 517.4Q140.7 516.2 140.7 514.3L140.7 514.3L140.7 511.8Q140.7 509.9 139.6 508.7Q138.6 507.5 136.6 507.5L136.6 507.5Q135.8 507.5 135.2 507.7Q134.5 507.9 134.0 508.2Q133.5 508.6 133.2 509.2Q132.9 509.7 132.9 510.4L132.9 510.4L132.9 515.7Q132.9 516.4 133.2 516.9Q133.5 517.5 134.0 517.8Q134.5 518.2 135.2 518.4Q135.8 518.6 136.6 518.6ZM155.4 511.9L157.9 505.8L160.1 505.8L152.9 523.4Q152.7 524.1 152.4 524.5Q152.1 525.0 151.7 525.3Q151.2 525.6 150.7 525.7Q150.1 525.9 149.3 525.9L149.3 525.9L147.1 525.9L147.1 524.0L150.5 524.0L152.1 520.0L146.3 505.8L148.6 505.8L151.0 511.9L153.2 517.4L153.3 517.4L155.4 511.9Z "/><clipPath id="satori_cp-id-1-0-1-0-2"><rect x="178" y="489" width="285" height="36"/></clipPath><mask id="satori_om-id-1-0-1-0-2"><rect x="178" y="489" width="285" height="36" fill="#fff"/></mask><path fill="black" d="M184.4 520.1L180.1 520.1L180.1 500.5L187.7 500.5Q189.1 500.5 190.2 501.0Q191.4 501.4 192.1 502.2Q192.9 503.0 193.3 504.2Q193.7 505.3 193.7 506.8L193.7 506.8Q193.7 508.2 193.3 509.3Q192.9 510.5 192.1 511.3Q191.4 512.1 190.2 512.5Q189.1 513.0 187.7 513.0L187.7 513.0L184.4 513.0L184.4 520.1ZM184.4 503.9L184.4 509.6L186.6 509.6Q188.1 509.6 188.7 509.0Q189.3 508.5 189.3 507.2L189.3 507.2L189.3 506.3Q189.3 505.1 188.7 504.5Q188.1 503.9 186.6 503.9L186.6 503.9L184.4 503.9ZM196.9 520.1L196.9 516.9L200.2 516.9L200.2 508.9L196.9 508.9L196.9 505.6L204.3 505.6L204.3 509.7L204.5 509.7Q204.7 508.9 205.1 508.2Q205.4 507.5 206.0 506.9Q206.5 506.3 207.3 506.0Q208.1 505.6 209.2 505.6L209.2 505.6L210.5 505.6L210.5 509.5L207.5 509.5Q205.9 509.5 205.1 510.4Q204.3 511.3 204.3 512.6L204.3 512.6L204.3 516.9L209.1 516.9L209.1 520.1L196.9 520.1ZM227.6 520.1L225.2 520.1Q223.9 520.1 223.2 519.4Q222.4 518.8 222.2 517.5L222.2 517.5L222.1 517.5Q221.7 519.0 220.5 519.7Q219.4 520.4 217.7 520.4L217.7 520.4Q215.6 520.4 214.3 519.3Q213.1 518.2 213.1 516.1L213.1 516.1Q213.1 513.8 214.7 512.8Q216.4 511.7 219.6 511.7L219.6 511.7L221.9 511.7L221.9 510.9Q221.9 509.6 221.3 509.0Q220.7 508.3 219.2 508.3L219.2 508.3Q217.9 508.3 217.1 508.8Q216.3 509.3 215.7 510.2L215.7 510.2L213.4 508.1Q214.2 506.9 215.7 506.1Q217.3 505.3 219.7 505.3L219.7 505.3Q222.7 505.3 224.4 506.7Q226.0 508.0 226.0 510.8L226.0 510.8L226.0 517.1L227.6 517.1L227.6 520.1ZM219.3 517.7L219.3 517.7Q220.4 517.7 221.1 517.2Q221.9 516.6 221.9 515.6L221.9 515.6L221.9 513.9L219.7 513.9Q217.1 513.9 217.1 515.6L217.1 515.6L217.1 516.2Q217.1 516.9 217.7 517.3Q218.3 517.7 219.3 517.7ZM243.3 520.1L237.9 520.1Q235.7 520.1 234.6 518.9Q233.5 517.7 233.5 515.9L233.5 515.9L233.5 508.9L229.6 508.9L229.6 505.6L232.1 505.6Q233.0 505.6 233.4 505.3Q233.8 504.9 233.8 503.9L233.8 503.9L233.8 500.5L237.6 500.5L237.6 505.6L243.3 505.6L243.3 508.9L237.6 508.9L237.6 516.9L243.3 516.9L243.3 520.1ZM254.5 503.8L254.5 503.8Q253.1 503.8 252.6 503.2Q252.0 502.6 252.0 501.8L252.0 501.8L252.0 501.0Q252.0 500.2 252.6 499.6Q253.1 499.1 254.5 499.1L254.5 499.1Q255.9 499.1 256.4 499.6Q257.0 500.2 257.0 501.0L257.0 501.0L257.0 501.8Q257.0 502.6 256.4 503.2Q255.9 503.8 254.5 503.8ZM247.8 520.1L247.8 516.9L252.4 516.9L252.4 508.9L247.8 508.9L247.8 505.6L256.6 505.6L256.6 516.9L260.8 516.9L260.8 520.1L247.8 520.1ZM263.8 520.1L263.8 499.4L268.0 499.4L268.0 511.1L268.2 511.1L270.1 508.9L273.1 505.6L277.9 505.6L272.3 511.4L278.5 520.1L273.5 520.1L269.3 513.7L268.0 515.1L268.0 520.1L263.8 520.1Z M304.4 520.4L304.4 520.4Q300.5 520.4 298.6 517.8Q296.7 515.1 296.7 510.3L296.7 510.3Q296.7 505.5 298.6 502.9Q300.5 500.2 304.4 500.2L304.4 500.2Q306.0 500.2 307.1 500.6Q308.3 501.0 309.1 501.8Q310.0 502.5 310.5 503.5Q311.1 504.6 311.4 505.8L311.4 505.8L307.4 506.8Q307.3 506.1 307.1 505.5Q306.8 504.9 306.5 504.5Q306.1 504.1 305.6 503.8Q305.1 503.6 304.4 503.6L304.4 503.6Q302.7 503.6 301.9 504.9Q301.2 506.3 301.2 508.6L301.2 508.6L301.2 512.0Q301.2 514.4 301.9 515.7Q302.7 517.0 304.4 517.0L304.4 517.0Q305.8 517.0 306.5 516.1Q307.1 515.2 307.4 513.8L307.4 513.8L311.4 514.8Q311.1 516.1 310.5 517.1Q310.0 518.2 309.1 518.9Q308.3 519.6 307.1 520.0Q306.0 520.4 304.4 520.4ZM314.2 520.1L314.2 499.4L318.4 499.4L318.4 508.3L318.5 508.3Q318.8 507.7 319.1 507.1Q319.5 506.6 320.0 506.2Q320.5 505.8 321.2 505.5Q321.9 505.3 322.8 505.3L322.8 505.3Q323.8 505.3 324.7 505.7Q325.6 506.0 326.2 506.7Q326.8 507.4 327.1 508.4Q327.5 509.4 327.5 510.7L327.5 510.7L327.5 520.1L323.3 520.1L323.3 511.3Q323.3 508.5 320.9 508.5L320.9 508.5Q320.4 508.5 320.0 508.6Q319.5 508.8 319.1 509.0Q318.8 509.3 318.6 509.7Q318.4 510.1 318.4 510.6L318.4 510.6L318.4 520.1L314.2 520.1ZM345.2 520.1L342.8 520.1Q341.5 520.1 340.8 519.4Q340.0 518.8 339.8 517.5L339.8 517.5L339.7 517.5Q339.3 519.0 338.1 519.7Q337.0 520.4 335.3 520.4L335.3 520.4Q333.2 520.4 331.9 519.3Q330.7 518.2 330.7 516.1L330.7 516.1Q330.7 513.8 332.3 512.8Q334.0 511.7 337.2 511.7L337.2 511.7L339.5 511.7L339.5 510.9Q339.5 509.6 338.9 509.0Q338.3 508.3 336.8 508.3L336.8 508.3Q335.5 508.3 334.7 508.8Q333.9 509.3 333.3 510.2L333.3 510.2L331.0 508.1Q331.8 506.9 333.3 506.1Q334.9 505.3 337.3 505.3L337.3 505.3Q340.3 505.3 342.0 506.7Q343.6 508.0 343.6 510.8L343.6 510.8L343.6 517.1L345.2 517.1L345.2 520.1ZM336.9 517.7L336.9 517.7Q338.0 517.7 338.7 517.2Q339.5 516.6 339.5 515.6L339.5 515.6L339.5 513.9L337.3 513.9Q334.7 513.9 334.7 515.6L334.7 515.6L334.7 516.2Q334.7 516.9 335.3 517.3Q335.9 517.7 336.9 517.7ZM352.0 520.1L347.8 520.1L347.8 505.6L352.0 505.6L352.0 508.3L352.1 508.3Q352.4 507.7 352.7 507.1Q353.1 506.6 353.6 506.2Q354.1 505.8 354.8 505.5Q355.5 505.3 356.4 505.3L356.4 505.3Q357.4 505.3 358.3 505.7Q359.2 506.0 359.8 506.7Q360.4 507.4 360.7 508.4Q361.1 509.4 361.1 510.7L361.1 510.7L361.1 520.1L356.9 520.1L356.9 511.3Q356.9 508.5 354.5 508.5L354.5 508.5Q354.0 508.5 353.6 508.6Q353.1 508.8 352.7 509.0Q352.4 509.3 352.2 509.7Q352.0 510.1 352.0 510.6L352.0 510.6L352.0 520.1ZM373.8 520.1L373.8 517.5L373.6 517.5Q373.0 518.8 372.1 519.6Q371.1 520.4 369.3 520.4L369.3 520.4Q368.1 520.4 367.1 520.0Q366.1 519.5 365.4 518.6Q364.7 517.7 364.3 516.3Q363.9 514.8 363.9 512.9L363.9 512.9Q363.9 510.9 364.3 509.5Q364.7 508.1 365.4 507.1Q366.1 506.2 367.1 505.8Q368.1 505.3 369.3 505.3L369.3 505.3Q370.2 505.3 370.9 505.5Q371.5 505.8 372.1 506.1Q372.6 506.5 373.0 507.1Q373.3 507.6 373.6 508.3L373.6 508.3L373.8 508.3L373.8 499.4L377.9 499.4L377.9 520.1L373.8 520.1ZM371.1 517.2L371.1 517.2Q372.2 517.2 373.0 516.7Q373.8 516.1 373.8 515.0L373.8 515.0L373.8 510.7Q373.8 509.6 373.0 509.1Q372.2 508.5 371.1 508.5L371.1 508.5Q369.7 508.5 369.0 509.4Q368.2 510.2 368.2 511.7L368.2 511.7L368.2 514.0Q368.2 515.5 369.0 516.4Q369.7 517.2 371.1 517.2ZM381.5 520.1L381.5 516.9L385.9 516.9L385.9 502.6L381.5 502.6L381.5 499.4L390.1 499.4L390.1 516.9L394.5 516.9L394.5 520.1L381.5 520.1ZM405.2 520.4L405.2 520.4Q401.6 520.4 399.7 518.4Q397.8 516.4 397.8 512.9L397.8 512.9Q397.8 511.2 398.3 509.7Q398.8 508.3 399.7 507.3Q400.6 506.3 401.9 505.8Q403.2 505.3 404.8 505.3L404.8 505.3Q406.5 505.3 407.7 505.8Q409.0 506.3 409.9 507.3Q410.8 508.2 411.3 509.6Q411.8 511.0 411.8 512.6L411.8 512.6L411.8 513.9L401.9 513.9L401.9 514.1Q401.9 515.5 402.8 516.4Q403.7 517.2 405.3 517.2L405.3 517.2Q406.6 517.2 407.5 516.7Q408.5 516.3 409.1 515.4L409.1 515.4L411.4 517.9Q410.5 518.9 409.0 519.7Q407.5 520.4 405.2 520.4ZM404.9 508.3L404.9 508.3Q403.5 508.3 402.7 509.1Q401.9 509.9 401.9 511.3L401.9 511.3L401.9 511.6L407.7 511.6L407.7 511.3Q407.7 509.9 407.0 509.1Q406.2 508.3 404.9 508.3ZM415.0 520.1L415.0 499.4L419.2 499.4L419.2 511.1L419.4 511.1L421.3 508.9L424.3 505.6L429.1 505.6L423.5 511.4L429.7 520.1L424.7 520.1L420.5 513.7L419.2 515.1L419.2 520.1L415.0 520.1ZM446.0 520.1L443.6 520.1Q442.3 520.1 441.6 519.4Q440.8 518.8 440.6 517.5L440.6 517.5L440.5 517.5Q440.1 519.0 438.9 519.7Q437.8 520.4 436.1 520.4L436.1 520.4Q434.0 520.4 432.7 519.3Q431.5 518.2 431.5 516.1L431.5 516.1Q431.5 513.8 433.1 512.8Q434.8 511.7 438.0 511.7L438.0 511.7L440.3 511.7L440.3 510.9Q440.3 509.6 439.7 509.0Q439.1 508.3 437.6 508.3L437.6 508.3Q436.3 508.3 435.5 508.8Q434.7 509.3 434.1 510.2L434.1 510.2L431.8 508.1Q432.6 506.9 434.1 506.1Q435.7 505.3 438.1 505.3L438.1 505.3Q441.1 505.3 442.8 506.7Q444.4 508.0 444.4 510.8L444.4 510.8L444.4 517.1L446.0 517.1L446.0 520.1ZM437.7 517.7L437.7 517.7Q438.8 517.7 439.5 517.2Q440.3 516.6 440.3 515.6L440.3 515.6L440.3 513.9L438.1 513.9Q435.5 513.9 435.5 515.6L435.5 515.6L435.5 516.2Q435.5 516.9 436.1 517.3Q436.7 517.7 437.7 517.7ZM448.9 520.1L448.9 516.9L452.2 516.9L452.2 508.9L448.9 508.9L448.9 505.6L456.3 505.6L456.3 509.7L456.5 509.7Q456.7 508.9 457.1 508.2Q457.4 507.5 458.0 506.9Q458.5 506.3 459.3 506.0Q460.1 505.6 461.2 505.6L461.2 505.6L462.5 505.6L462.5 509.5L459.5 509.5Q457.9 509.5 457.1 510.4Q456.3 511.3 456.3 512.6L456.3 512.6L456.3 516.9L461.1 516.9L461.1 520.1L448.9 520.1Z " clip-path="url(#satori_cp-id-1-0-1-0-2)" mask="url(#satori_om-id-1-0-1-0-2)"/><clipPath id="satori_cp-id-1-0-1-1"><rect x="786" y="489" width="286" height="36"/></clipPath><mask id="satori_om-id-1-0-1-1"><rect x="786" y="489" width="286" height="36" fill="#fff"/></mask><path fill="black" d="M792.4 520.1L788.1 520.1L788.1 500.5L795.7 500.5Q797.1 500.5 798.2 501.0Q799.4 501.4 800.1 502.2Q800.9 503.0 801.3 504.2Q801.7 505.3 801.7 506.8L801.7 506.8Q801.7 508.2 801.3 509.3Q800.9 510.5 800.1 511.3Q799.4 512.1 798.2 512.5Q797.1 513.0 795.7 513.0L795.7 513.0L792.4 513.0L792.4 520.1ZM792.4 503.9L792.4 509.6L794.6 509.6Q796.1 509.6 796.7 509.0Q797.3 508.5 797.3 507.2L797.3 507.2L797.3 506.3Q797.3 505.1 796.7 504.5Q796.1 503.9 794.6 503.9L794.6 503.9L792.4 503.9ZM804.9 520.1L804.9 516.9L808.2 516.9L808.2 508.9L804.9 508.9L804.9 505.6L812.3 505.6L812.3 509.7L812.5 509.7Q812.7 508.9 813.1 508.2Q813.4 507.5 814.0 506.9Q814.5 506.3 815.3 506.0Q816.1 505.6 817.2 505.6L817.2 505.6L818.5 505.6L818.5 509.5L815.5 509.5Q813.9 509.5 813.1 510.4Q812.3 511.3 812.3 512.6L812.3 512.6L812.3 516.9L817.1 516.9L817.1 520.1L804.9 520.1ZM835.6 520.1L833.2 520.1Q831.9 520.1 831.2 519.4Q830.4 518.8 830.2 517.5L830.2 517.5L830.1 517.5Q829.7 519.0 828.5 519.7Q827.4 520.4 825.7 520.4L825.7 520.4Q823.6 520.4 822.3 519.3Q821.1 518.2 821.1 516.1L821.1 516.1Q821.1 513.8 822.7 512.8Q824.4 511.7 827.6 511.7L827.6 511.7L829.9 511.7L829.9 510.9Q829.9 509.6 829.3 509.0Q828.7 508.3 827.2 508.3L827.2 508.3Q825.9 508.3 825.1 508.8Q824.3 509.3 823.7 510.2L823.7 510.2L821.4 508.1Q822.2 506.9 823.7 506.1Q825.3 505.3 827.7 505.3L827.7 505.3Q830.7 505.3 832.4 506.7Q834.0 508.0 834.0 510.8L834.0 510.8L834.0 517.1L835.6 517.1L835.6 520.1ZM827.3 517.7L827.3 517.7Q828.4 517.7 829.1 517.2Q829.9 516.6 829.9 515.6L829.9 515.6L829.9 513.9L827.7 513.9Q825.1 513.9 825.1 515.6L825.1 515.6L825.1 516.2Q825.1 516.9 825.7 517.3Q826.3 517.7 827.3 517.7ZM851.3 520.1L845.9 520.1Q843.7 520.1 842.6 518.9Q841.5 517.7 841.5 515.9L841.5 515.9L841.5 508.9L837.6 508.9L837.6 505.6L840.1 505.6Q841.0 505.6 841.4 505.3Q841.8 504.9 841.8 503.9L841.8 503.9L841.8 500.5L845.6 500.5L845.6 505.6L851.3 505.6L851.3 508.9L845.6 508.9L845.6 516.9L851.3 516.9L851.3 520.1ZM862.5 503.8L862.5 503.8Q861.1 503.8 860.5 503.2Q860.0 502.6 860.0 501.8L860.0 501.8L860.0 501.0Q860.0 500.2 860.5 499.6Q861.1 499.1 862.5 499.1L862.5 499.1Q863.9 499.1 864.4 499.6Q865.0 500.2 865.0 501.0L865.0 501.0L865.0 501.8Q865.0 502.6 864.4 503.2Q863.9 503.8 862.5 503.8ZM855.8 520.1L855.8 516.9L860.4 516.9L860.4 508.9L855.8 508.9L855.8 505.6L864.6 505.6L864.6 516.9L868.8 516.9L868.8 520.1L855.8 520.1ZM871.8 520.1L871.8 499.4L876.0 499.4L876.0 511.1L876.2 511.1L878.1 508.9L881.1 505.6L885.9 505.6L880.3 511.4L886.5 520.1L881.5 520.1L877.3 513.7L876.0 515.1L876.0 520.1L871.8 520.1Z M912.4 520.4L912.4 520.4Q908.5 520.4 906.6 517.8Q904.7 515.1 904.7 510.3L904.7 510.3Q904.7 505.5 906.6 502.9Q908.5 500.2 912.4 500.2L912.4 500.2Q914.0 500.2 915.1 500.6Q916.3 501.0 917.1 501.8Q918.0 502.5 918.5 503.5Q919.1 504.6 919.4 505.8L919.4 505.8L915.4 506.8Q915.3 506.1 915.1 505.5Q914.8 504.9 914.5 504.5Q914.1 504.1 913.6 503.8Q913.1 503.6 912.4 503.6L912.4 503.6Q910.7 503.6 909.9 504.9Q909.2 506.3 909.2 508.6L909.2 508.6L909.2 512.0Q909.2 514.4 909.9 515.7Q910.7 517.0 912.4 517.0L912.4 517.0Q913.8 517.0 914.5 516.1Q915.1 515.2 915.4 513.8L915.4 513.8L919.4 514.8Q919.1 516.1 918.5 517.1Q918.0 518.2 917.1 518.9Q916.3 519.6 915.1 520.0Q914.0 520.4 912.4 520.4ZM922.2 520.1L922.2 499.4L926.4 499.4L926.4 508.3L926.5 508.3Q926.8 507.7 927.1 507.1Q927.5 506.6 928.0 506.2Q928.5 505.8 929.2 505.5Q929.9 505.3 930.8 505.3L930.8 505.3Q931.8 505.3 932.7 505.7Q933.6 506.0 934.2 506.7Q934.8 507.4 935.1 508.4Q935.5 509.4 935.5 510.7L935.5 510.7L935.5 520.1L931.3 520.1L931.3 511.3Q931.3 508.5 928.9 508.5L928.9 508.5Q928.4 508.5 928.0 508.6Q927.5 508.8 927.1 509.0Q926.8 509.3 926.6 509.7Q926.4 510.1 926.4 510.6L926.4 510.6L926.4 520.1L922.2 520.1ZM953.2 520.1L950.8 520.1Q949.5 520.1 948.8 519.4Q948.0 518.8 947.8 517.5L947.8 517.5L947.7 517.5Q947.3 519.0 946.1 519.7Q945.0 520.4 943.3 520.4L943.3 520.4Q941.2 520.4 939.9 519.3Q938.7 518.2 938.7 516.1L938.7 516.1Q938.7 513.8 940.3 512.8Q942.0 511.7 945.2 511.7L945.2 511.7L947.5 511.7L947.5 510.9Q947.5 509.6 946.9 509.0Q946.3 508.3 944.8 508.3L944.8 508.3Q943.5 508.3 942.7 508.8Q941.9 509.3 941.3 510.2L941.3 510.2L939.0 508.1Q939.8 506.9 941.3 506.1Q942.9 505.3 945.3 505.3L945.3 505.3Q948.3 505.3 950.0 506.7Q951.6 508.0 951.6 510.8L951.6 510.8L951.6 517.1L953.2 517.1L953.2 520.1ZM944.9 517.7L944.9 517.7Q946.0 517.7 946.7 517.2Q947.5 516.6 947.5 515.6L947.5 515.6L947.5 513.9L945.3 513.9Q942.7 513.9 942.7 515.6L942.7 515.6L942.7 516.2Q942.7 516.9 943.3 517.3Q943.9 517.7 944.9 517.7ZM960.0 520.1L955.8 520.1L955.8 505.6L960.0 505.6L960.0 508.3L960.1 508.3Q960.4 507.7 960.7 507.1Q961.1 506.6 961.6 506.2Q962.1 505.8 962.8 505.5Q963.5 505.3 964.4 505.3L964.4 505.3Q965.4 505.3 966.3 505.7Q967.2 506.0 967.8 506.7Q968.4 507.4 968.7 508.4Q969.1 509.4 969.1 510.7L969.1 510.7L969.1 520.1L964.9 520.1L964.9 511.3Q964.9 508.5 962.5 508.5L962.5 508.5Q962.0 508.5 961.6 508.6Q961.1 508.8 960.7 509.0Q960.4 509.3 960.2 509.7Q960.0 510.1 960.0 510.6L960.0 510.6L960.0 520.1ZM981.8 520.1L981.8 517.5L981.6 517.5Q981.0 518.8 980.1 519.6Q979.1 520.4 977.3 520.4L977.3 520.4Q976.1 520.4 975.1 520.0Q974.1 519.5 973.4 518.6Q972.7 517.7 972.3 516.3Q971.9 514.8 971.9 512.9L971.9 512.9Q971.9 510.9 972.3 509.5Q972.7 508.1 973.4 507.1Q974.1 506.2 975.1 505.8Q976.1 505.3 977.3 505.3L977.3 505.3Q978.2 505.3 978.9 505.5Q979.5 505.8 980.1 506.1Q980.6 506.5 980.9 507.1Q981.3 507.6 981.6 508.3L981.6 508.3L981.8 508.3L981.8 499.4L985.9 499.4L985.9 520.1L981.8 520.1ZM979.1 517.2L979.1 517.2Q980.2 517.2 981.0 516.7Q981.8 516.1 981.8 515.0L981.8 515.0L981.8 510.7Q981.8 509.6 981.0 509.1Q980.2 508.5 979.1 508.5L979.1 508.5Q977.7 508.5 977.0 509.4Q976.2 510.2 976.2 511.7L976.2 511.7L976.2 514.0Q976.2 515.5 977.0 516.4Q977.7 517.2 979.1 517.2ZM989.5 520.1L989.5 516.9L993.9 516.9L993.9 502.6L989.5 502.6L989.5 499.4L998.1 499.4L998.1 516.9L1002.5 516.9L1002.5 520.1L989.5 520.1ZM1013.2 520.4L1013.2 520.4Q1009.6 520.4 1007.7 518.4Q1005.8 516.4 1005.8 512.9L1005.8 512.9Q1005.8 511.2 1006.3 509.7Q1006.8 508.3 1007.7 507.3Q1008.6 506.3 1009.9 505.8Q1011.2 505.3 1012.8 505.3L1012.8 505.3Q1014.5 505.3 1015.7 505.8Q1017.0 506.3 1017.9 507.3Q1018.8 508.2 1019.3 509.6Q1019.8 511.0 1019.8 512.6L1019.8 512.6L1019.8 513.9L1009.9 513.9L1009.9 514.1Q1009.9 515.5 1010.8 516.4Q1011.7 517.2 1013.3 517.2L1013.3 517.2Q1014.6 517.2 1015.5 516.7Q1016.5 516.3 1017.1 515.4L1017.1 515.4L1019.4 517.9Q1018.5 518.9 1017.0 519.7Q1015.5 520.4 1013.2 520.4ZM1012.9 508.3L1012.9 508.3Q1011.5 508.3 1010.7 509.1Q1009.9 509.9 1009.9 511.3L1009.9 511.3L1009.9 511.6L1015.7 511.6L1015.7 511.3Q1015.7 509.9 1015.0 509.1Q1014.2 508.3 1012.9 508.3ZM1023.0 520.1L1023.0 499.4L1027.2 499.4L1027.2 511.1L1027.4 511.1L1029.3 508.9L1032.3 505.6L1037.1 505.6L1031.5 511.4L1037.7 520.1L1032.7 520.1L1028.5 513.7L1027.2 515.1L1027.2 520.1L1023.0 520.1ZM1054.0 520.1L1051.6 520.1Q1050.3 520.1 1049.6 519.4Q1048.8 518.8 1048.6 517.5L1048.6 517.5L1048.5 517.5Q1048.1 519.0 1046.9 519.7Q1045.8 520.4 1044.1 520.4L1044.1 520.4Q1042.0 520.4 1040.7 519.3Q1039.5 518.2 1039.5 516.1L1039.5 516.1Q1039.5 513.8 1041.1 512.8Q1042.8 511.7 1046.0 511.7L1046.0 511.7L1048.3 511.7L1048.3 510.9Q1048.3 509.6 1047.7 509.0Q1047.1 508.3 1045.6 508.3L1045.6 508.3Q1044.3 508.3 1043.5 508.8Q1042.7 509.3 1042.1 510.2L1042.1 510.2L1039.8 508.1Q1040.6 506.9 1042.1 506.1Q1043.7 505.3 1046.1 505.3L1046.1 505.3Q1049.1 505.3 1050.8 506.7Q1052.4 508.0 1052.4 510.8L1052.4 510.8L1052.4 517.1L1054.0 517.1L1054.0 520.1ZM1045.7 517.7L1045.7 517.7Q1046.8 517.7 1047.5 517.2Q1048.3 516.6 1048.3 515.6L1048.3 515.6L1048.3 513.9L1046.1 513.9Q1043.5 513.9 1043.5 515.6L1043.5 515.6L1043.5 516.2Q1043.5 516.9 1044.1 517.3Q1044.7 517.7 1045.7 517.7ZM1056.9 520.1L1056.9 516.9L1060.2 516.9L1060.2 508.9L1056.9 508.9L1056.9 505.6L1064.3 505.6L1064.3 509.7L1064.5 509.7Q1064.7 508.9 1065.1 508.2Q1065.4 507.5 1066.0 506.9Q1066.5 506.3 1067.3 506.0Q1068.1 505.6 1069.2 505.6L1069.2 505.6L1070.5 505.6L1070.5 509.5L1067.5 509.5Q1065.9 509.5 1065.1 510.4Q1064.3 511.3 1064.3 512.6L1064.3 512.6L1064.3 516.9L1069.1 516.9L1069.1 520.1L1056.9 520.1Z " clip-path="url(#satori_cp-id-1-0-1-1)" mask="url(#satori_om-id-1-0-1-1)"/></svg>